<svg width="10" height="10" viewBox="0 0 10 10" fill="none" xmlns="http://www.w3.org/2000/svg">
  <path
    d="M9.54269 4.67689C9.50532 4.57481 9.44929 4.48156 9.3778 4.40247L5.45201 0.244561C5.3788 0.167026 5.29189 0.105522 5.19624 0.0635596C5.10059 0.0215978 4.99808 0 4.89455 0C4.68546 0 4.48493 0.0879714 4.33708 0.244561C4.26388 0.322097 4.20581 0.414145 4.16619 0.51545C4.12657 0.616755 4.10618 0.725333 4.10618 0.834984C4.10618 1.05644 4.18924 1.26882 4.33708 1.42541L6.92811 4.16131L0.968753 4.16131C0.760516 4.16131 0.560808 4.24892 0.413562 4.40488C0.266316 4.56083 0.183594 4.77234 0.183594 4.99289C0.183594 5.21344 0.266316 5.42496 0.413562 5.58091C0.560808 5.73686 0.760516 5.82447 0.968753 5.82447L6.92811 5.82447L4.33708 8.56038C4.26349 8.63768 4.20508 8.72966 4.16522 8.83099C4.12536 8.93233 4.10484 9.04102 4.10484 9.1508C4.10484 9.26058 4.12536 9.36927 4.16522 9.47061C4.20508 9.57194 4.26349 9.66392 4.33708 9.74122C4.41008 9.81917 4.49691 9.88103 4.59259 9.92325C4.68827 9.96547 4.7909 9.9872 4.89455 9.9872C4.9982 9.9872 5.10082 9.96547 5.1965 9.92325C5.29218 9.88103 5.37902 9.81917 5.45201 9.74122L9.3778 5.58332C9.44929 5.50423 9.50532 5.41097 9.54269 5.30889C9.62122 5.10644 9.62122 4.87935 9.54269 4.67689Z"
    fill="white" />
</svg>