<?xml version="1.0" encoding="utf-8"?>
<!-- Generator: Adobe Illustrator 27.2.0, SVG Export Plug-In . SVG Version: 6.00 Build 0)  -->
<svg version="1.1" id="Layer_1" xmlns="http://www.w3.org/2000/svg" xmlns:xlink="http://www.w3.org/1999/xlink" x="0px" y="0px"
	 viewBox="0 0 512 512" style="enable-background:new 0 0 512 512;" xml:space="preserve">
<style type="text/css">
	.st0{fill:#AAAAAA;}
	.st1{fill:#FFFFFF;}
</style>
<circle class="st0" cx="256" cy="256" r="208"/>
<path class="st1" d="M364.2,186.3l-134.4,160c-3,3.6-7.4,5.6-12,5.7h-0.3c-4.5,0-8.9-1.9-11.9-5.3l-57.6-64
	c-6.1-6.4-5.8-16.6,0.7-22.6c6.4-6.1,16.6-5.8,22.6,0.7c0.2,0.2,0.3,0.4,0.5,0.6l45.3,50.3l122.6-145.9c5.8-6.7,15.9-7.4,22.6-1.6
	C368.9,169.7,369.7,179.6,364.2,186.3L364.2,186.3z"/>
</svg>
