<?xml version="1.0" encoding="utf-8"?>
<!-- Generator: Adobe Illustrator 26.0.3, SVG Export Plug-In . SVG Version: 6.00 Build 0)  -->
<svg version="1.1" id="Layer_1" xmlns="http://www.w3.org/2000/svg" xmlns:xlink="http://www.w3.org/1999/xlink" x="0px" y="0px" viewBox="0 0 48 48" style="enable-background:new 0 0 48 48;" xml:space="preserve">
	<style type="text/css">
	.st0{fill:#878787;}
</style>
	<path class="st0" d="M26.8,24l10.6-10.6c0.8-0.8,0.8-2,0-2.8c-0.8-0.8-2-0.8-2.8,0L24,21.2L13.4,10.6c-0.8-0.8-2-0.8-2.8,0
	c-0.8,0.8-0.8,2,0,2.8L21.2,24L10.6,34.6c-0.8,0.8-0.8,2,0,2.8c0.8,0.8,2,0.8,2.8,0L24,26.8l10.6,10.6c0.8,0.8,2,0.8,2.8,0
	c0.8-0.8,0.8-2,0-2.8L26.8,24z" />
</svg>