<?xml version="1.0" encoding="UTF-8"?>
<svg id="Layer_1" data-name="Layer 1" xmlns="http://www.w3.org/2000/svg" viewBox="0 0 1595.12 705.73">
  <defs>
    <style>
      .cls-1, .cls-2 {
        stroke-width: 0px;
      }

      .cls-2 {
        fill: #0d8ac9;
      }
    </style>
  </defs>
  <path class="cls-2" d="m727.93,415.3c0-50.82,0-101.65,0-152.47,0-2.33,0-4.67.2-6.99.32-3.9,2.58-6.3,6.43-6.34,14.33-.16,28.66-.37,42.97.11,3.1.1,6.49,2.47,9.08,4.6,14.14,11.64,28,23.62,42.09,35.32,16.41,13.61,33.05,26.94,49.43,40.59,18.17,15.14,36.05,30.62,54.22,45.75,29.18,24.28,58.62,48.26,87.7,72.67,8.26,6.93,15.66,14.9,23.44,22.4.72.69,1.27,1.65,2.1,2.11,1.23.69,2.9,1.72,3.92,1.35.93-.34,1.42-2.3,1.81-3.64.27-.92.05-1.98.03-2.98-.61-30.31-1.54-60.62-1.76-90.93-.28-38.16.02-76.32.09-114.48,0-2.16.11-4.33.31-6.49.37-4.11,2.65-6.5,6.8-6.51,18.83-.07,37.66-.15,56.48.04,5.47.06,7.24,2.62,7.26,9.16.06,19.5.08,38.99.08,58.49,0,84.32-.03,168.64-.04,252.95,0,9.86-1.86,11.76-11.61,11.81-11.83.06-23.67.43-35.48-.05-4.06-.16-8.87-1.43-11.91-3.93-22.68-18.56-45.06-37.49-67.41-56.45-18.42-15.62-36.51-31.63-55.03-47.12-38.57-32.27-77.37-64.26-115.95-96.51-6.12-5.11-11.61-10.98-17.36-16.53-1.32-1.27-2.36-2.91-3.86-3.88-1.24-.81-3.38-1.65-4.34-1.11-.99.57-1.48,2.8-1.43,4.28.72,20.44,2.14,40.88,2.29,61.32.37,48.65.16,97.31.18,145.97,0,1-.02,2-.04,3-.18,9.41-1.87,11.06-11.2,11.06-16,0-31.99,0-47.99.1-9.63.05-11.53-1.59-11.54-11.2-.05-51.82-.02-103.65-.02-155.47h.03Z"/>
  <path class="cls-2" d="m391.19,415.21c0,51.49,0,102.99,0,154.48,0,10.06-1.96,12.06-11.92,12.12-11.5.07-23,.01-34.49.21-5.31.09-9.63-1.71-13.64-5.13-28.75-24.55-57.5-49.09-86.41-73.46-21.26-17.92-42.78-35.54-64.12-53.37-23.77-19.86-47.7-39.53-71.07-59.84-11.63-10.11-25.05-18.38-33.98-31.5-1.08-1.58-3.85-2.01-5.84-2.97-.58,2.06-1.7,4.14-1.64,6.18.42,14.31,1.53,28.62,1.59,42.93.24,54.16.22,108.32.16,162.48-.01,14.23-.57,14.5-14.73,14.46-14.5-.03-29,.05-43.49.15-9,.06-11.05-1.67-11.08-10.63-.12-38.49-.15-76.99-.16-115.49-.02-62.83-.01-125.65,0-188.48,0-3.66.09-7.33.35-10.99.3-4.27,2.68-6.95,7-6.99,13.83-.13,27.66-.16,41.48.11,2.3.04,4.96,1.26,6.78,2.75,11.07,9.08,21.89,18.48,32.91,27.63,14.98,12.46,30.06,24.79,45.08,37.19,4.75,3.92,9.47,7.89,14.18,11.86,16.67,14.07,33.24,28.27,50.01,42.22,26.37,21.93,53.03,43.52,79.26,65.62,12.47,10.51,24.22,21.86,36.29,32.85,1.11,1.01,1.94,2.38,3.17,3.16,1.27.81,2.87,1.12,4.33,1.65.43-1.36,1.25-2.72,1.22-4.07-.13-5.99-.74-11.98-.77-17.98-.24-64.49-.43-128.97-.55-193.46-.01-7.9,1.97-9.63,9.88-9.64,16.66-.01,33.33-.04,49.99-.02,8.18,0,10.11,1.81,10.11,9.97.04,51.99.02,103.99.02,155.98h.05Z"/>
  <path class="cls-2" d="m1420.78,582.06c-53.82,0-107.64,0-161.46,0-7.46,0-9.48-1.83-9.51-10.06-.09-28.49-.03-56.98,0-85.48.08-74.32.12-148.63.32-222.95.04-13.97.69-14.28,14.5-14.28,104.14.03,208.29.04,312.43.07,1.83,0,3.67,0,5.49.11,4.11.27,6.7,2.53,6.73,6.61.12,14.82.19,29.65-.13,44.47-.11,5.09-3,6.98-9.05,6.99-11.66.02-23.33-.15-34.99-.15-65.49,0-130.97.03-196.46,0-4.16,0-8.32-.43-12.48-.5-5.43-.09-8.02,1.93-8.07,7.27-.17,19.33-.09,38.65.02,57.98.03,4.63,2.8,7.02,7.34,7.08,6.16.07,12.33-.12,18.49-.13,38.99-.04,77.98-.04,116.97-.08,7.82,0,9.75,1.8,9.81,9.69.1,12.66.17,25.33.16,37.99,0,8.41-2.26,10.66-10.77,10.63-43.99-.11-87.98-.26-131.97-.45-7.97-.03-10.21,1.9-10.23,9.87-.03,20.33.02,40.66.07,60.99.02,9.49,1.96,11.37,11.48,11.36,40.65-.06,81.31-.11,121.96-.16,40.32-.05,80.64-.1,120.96-.17,7.6-.01,10.07,2.2,10.12,9.61.09,14.16.13,28.32.03,42.48-.06,9.27-1.89,10.95-11.32,10.95-53.49.01-106.98,0-160.46,0,0,.08,0,.15,0,.23Z"/>
  <path class="cls-2" d="m521.12,415.29c0-50.47,0-100.94,0-151.41,0-2,0-4,.09-6,.31-6.65,2.23-8.58,8.9-8.6,17.49-.06,34.98-.02,52.47-.03,2.83,0,5.67-.12,8.49-.02,5.84.22,7.8,2.12,7.9,7.93.15,9.16.16,18.32.16,27.48.04,90.28.06,180.56.08,270.84,0,6,.02,12-.21,17.99-.24,6.07-2.29,8.25-8.25,8.3-20.82.19-41.64.25-62.46.21-5.44,0-7.56-2.29-7.63-8.3-.13-11.66.07-23.32.07-34.97.01-41.14,0-82.28,0-123.43h.39Z"/>
  <path class="cls-1" d="m537.41,0c51.17,1.36,92.97,10.08,130.54,34.7,17.26,11.31,32.14,24.9,46.12,40.04,18.59,20.13,31.05,43.57,41.04,68.56,3.81,9.54,6.54,19.59,8.83,29.62,2.15,9.46-2.9,18.21-12.03,21.53-2.73.99-6.69.56-9.39-.71-6.28-2.93-9.52-8.66-10.93-15.31-3.76-17.77-10.73-34.33-19.53-50.08-15.52-27.8-36.04-50.9-63.63-67.53-19.94-12.02-41.1-19.8-64.02-24.24-21.6-4.18-43-4.48-64.61-2.29-6.75.69-13.33,2.94-20.07,3.95-6.86,1.02-13.77-3.77-17.22-11.22-2.45-5.28-1.47-11.88,3.46-15.92,3.09-2.53,7.15-4.61,11.04-5.26,15.72-2.62,31.54-4.6,40.4-5.84Zm-1.61,61.32c-7.54,1.09-15.19,2.36-22.35,4.84-8.45,2.92-11.84,11.36-9.32,20.05,2.31,7.99,8.83,11.97,17.77,10.79,2.81-.37,5.6-.83,8.38-1.38,24-4.76,47.06-1.15,69.33,8.24,23.25,9.8,42.28,24.81,53.84,47.66,5.97,11.8,11.06,24.16,15.34,36.68,4.32,12.63,16.05,16.63,26.17,7.98,5.74-4.91,6.23-11.2,4.69-17.81-5.14-22-14.06-42.37-28.14-60.12-30.8-38.81-72.37-55.28-120.73-57.07-5,0-10.07-.57-14.97.13Zm-2.15,64.54c-3.74.83-7.57,2.66-10.57,5.04-5.64,4.47-6.86,9.55-4.69,14.96,3.31,8.29,7.49,11.53,15.14,11.29,3.81-.12,7.61-.77,11.42-1.17,28-2.94,50.84,12.28,58.99,39.24.77,2.54,1.56,5.12,2.8,7.45,4.13,7.76,9.86,10.45,17.15,8.35,7.9-2.27,12.77-8.56,12.12-16.68-.35-4.42-1.56-8.83-2.88-13.1-4.11-13.3-12.92-23.3-22.57-33-16.82-16.92-37.34-23.55-62.06-23.95-3.95.37-9.52.39-14.84,1.57Z"/>
  <path class="cls-1" d="m1080.9,704.94c-7.32,0-14.64.13-21.95-.04-6.64-.15-9.71-2.65-10.03-9.24-.47-9.78-.46-19.62-.12-29.41.21-6.06,3.99-10.13,10.19-10.31,14.61-.44,29.25-.43,43.87-.05,6.02.16,9.6,3.81,9.86,9.97.45,10.28.39,20.61-.1,30.88-.28,5.9-3.15,8.03-9.27,8.17-7.48.17-14.97.04-22.45.04v-.02Zm-.46-37.86c-4,0-8-.13-11.99.04-4.31.18-6.87,2.6-7.01,6.93-.16,4.99-.11,10,.2,14.98.28,4.47,2.97,7.09,7.46,7.18,7.99.15,15.99.09,23.98-.06,3.57-.07,6.2-1.89,6.47-5.65.38-5.47.57-10.98.46-16.47-.09-4.35-2.84-6.68-7.08-6.89-4.15-.2-8.32-.04-12.49-.05Z"/>
  <path class="cls-1" d="m1346.24,704.96c-7.16,0-14.33.11-21.49-.03-6.37-.13-8.49-2.12-8.62-8.42-.21-9.82-.27-19.66-.06-29.48.14-6.82,3.13-10.63,9.9-10.9,14.13-.55,28.29-.4,42.44-.11,2.3.05,5.21,1.81,6.63,3.7,1.22,1.62,1.63,5.1.67,6.73-.91,1.55-4.11,2.53-6.25,2.44-10.76-.44-21.49-1.56-32.24-1.95-6.13-.22-8.34,2.27-8.63,8.49-.2,4.32-.16,8.66-.08,12.99.09,4.73,2.52,7.64,7.31,7.78,7.65.23,15.32.23,22.98.1,2.99-.05,5.89-1.18,5.95-4.76.07-3.93-3.01-4.75-6.2-4.99-2.49-.19-5.24.34-7.39-.58-1.95-.83-4.44-3.15-4.48-4.87-.04-1.56,2.82-4.46,4.54-4.56,6.95-.42,13.97-.27,20.92.22,4.04.28,6.1,3.38,6.12,7.32.03,4.48-.25,8.98-.64,13.46-.44,4.99-3.48,7.36-8.38,7.38-7.66.04-15.33.01-22.99.01v.04Z"/>
  <path class="cls-1" d="m1252.43,704.96c-7.32,0-14.64.11-21.96-.03-6.6-.13-8.78-2.09-8.91-8.69-.19-9.97-.13-19.96.19-29.93.21-6.6,3.16-10.08,9.84-10.29,14.45-.46,28.93-.43,43.38-.06,5.86.15,9.58,3.58,9.84,9.42.48,10.59.34,21.26-.31,31.84-.35,5.76-3.13,7.59-9.12,7.71-7.65.16-15.3.04-22.96.04Zm.93-37.93s0,.06,0,.09c-3.99,0-7.98-.16-11.96.04-5.28.27-7.59,2.45-7.83,7.74-.22,4.8-.03,9.64.24,14.44.25,4.3,2.79,6.77,7.08,6.86,8.14.17,16.28.21,24.42.06,4.46-.08,7.13-2.66,7.51-7.12.39-4.63.72-9.29.61-13.93-.14-5.37-2.66-7.81-8.1-8.13-3.97-.24-7.97-.05-11.96-.05Z"/>
  <path class="cls-1" d="m160.25,655.51c5.99,0,11.99-.14,17.97.04,6.83.21,10.15,2.69,11.86,9.24.87,3.32,1.15,6.9,1.06,10.34-.15,5.42-2.74,9.34-8,11.57-1.88.8-4.47,2.87-4.48,4.38-.02,1.69,2.53,3.4,3.97,5.09.1.12.32.14.42.26,1.6,1.89,3.19,3.79,4.78,5.69-2.66.86-5.35,2.47-7.95,2.35-2.38-.11-4.96-1.74-6.95-3.34-3.89-3.12-7.05-7.26-11.22-9.86-3.09-1.93-7.43-3.2-10.96-2.75-4.38.55-4.3,5.23-4.55,8.92-.28,4.18-1.97,7.18-6.64,7.03-4.5-.15-5.85-3.32-5.88-7.19-.08-11.32-.19-22.64,0-33.95.09-5.69,2.28-7.67,8.11-7.84,6.15-.18,12.31-.04,18.47-.04,0,.02,0,.04,0,.05Zm-6.89,10.71c-3.27.03-5.98,1.29-6.4,4.96-.4,3.54,1.62,6.17,4.89,6.42,7.08.55,14.25.79,21.3.23,1.86-.15,4.77-1.55,4.77-5.63,0-3.42-3.04-4.66-5.23-5.28-3.23-.9-16.35-.74-19.33-.71Z"/>
  <path class="cls-1" d="m1566.69,704.82c-6.83,0-13.67.22-20.49-.07-5.36-.23-8.13-4.2-7.01-9.24.85-3.86,3.84-5.46,7.02-3.22,10.38,7.3,21.92,3.24,32.98,3.48,1.51.03,4.28-3.15,4.3-4.88.03-1.82-2.18-4.4-4.06-5.33-2.06-1.02-4.86-.67-7.34-.66-7.16.03-14.33.48-21.47.21-6.99-.26-10.52-4.08-11.05-11.08-.17-2.32-.15-4.67.04-6.99.55-6.43,3.43-10.44,9.71-10.77,11.61-.6,23.28-.31,34.91-.05,2.14.05,4.82,1.22,6.21,2.79,1.51,1.71,3.01,5.05,2.28,6.68-.76,1.71-4.24,3.22-6.42,3.09-8.39-.51-16.73-1.72-25.1-2.66-.66-.07-1.33-.16-1.99-.15-3.34.05-6.83.5-7.12,4.58-.29,4.15,3.12,5.26,6.45,5.32,7.49.14,14.99.12,22.48-.15,10.16-.36,14.03,3.17,14.08,13.36.08,15.54-.25,15.87-15.93,15.87-4.17,0-8.33,0-12.5,0,0-.04,0-.08,0-.12Z"/>
  <path class="cls-1" d="m1016.86,680.52c0,5.16.43,10.37-.17,15.47-.33,2.79-1.81,6.87-3.83,7.67-2.47.98-6.75.05-9.06-1.66-9.49-7.02-18.52-14.65-27.72-22.05-.78-.63-1.48-1.35-2.3-1.92-4.09-2.87-7.19-1.56-7.48,3.41-.23,3.81.24,7.65.26,11.47.01,2.16.39,4.66-.55,6.38-1.1,2.02-3.44,4.63-5.25,4.63-1.81,0-5.16-2.86-5.2-4.52-.25-12.62-.23-25.28.51-37.89.31-5.27,5.1-6.62,9.75-3.18,9.49,7.02,18.81,14.28,28.19,21.44.66.5,1.19,1.28,1.92,1.57,2.32.94,4.72,1.71,7.08,2.55.51-2.32,1.36-4.63,1.47-6.98.22-4.82-.09-9.66.09-14.48.14-3.72,1.85-6.5,6.03-6.55,4.36-.05,6.37,2.69,6.51,6.66.21,5.99.05,11.98.05,17.98-.11,0-.22,0-.32,0Z"/>
  <path class="cls-1" d="m716.12,704.98c-6.16,0-12.32.11-18.48-.03-6.99-.16-9.03-2.18-9.06-8.98-.04-10.49,0-20.98.16-31.46.1-6.56,2.24-8.9,8.67-8.98,12.48-.17,24.97-.1,37.45,0,3.46.03,6.89.69,7.34,5.09.35,3.43-2.71,6.08-7.62,6.06-6.65-.03-13.29-.57-19.94-.88-2.15-.1-4.34-.38-6.46-.16-3.09.32-5.99,2.02-5.31,5.27.4,1.92,3.12,3.97,5.24,4.75,2.38.86,5.26.29,7.91.45,1.98.12,4.15,0,5.87.79,1.43.65,3.36,2.56,3.24,3.71-.17,1.56-1.82,3.55-3.34,4.21-1.85.81-4.22.5-6.36.53-1.83.03-3.66-.28-5.48-.22-3.59.13-6.99,1.17-7.2,5.33-.23,4.62,3.39,5.8,7.12,5.84,8.15.08,16.31-.21,24.46-.2,3.43,0,8.05-.45,8.2,4.26.16,4.91-4.59,4.42-7.94,4.53-6.15.2-12.32.06-18.48.06v.04Z"/>
  <path class="cls-1" d="m799.07,704.96c-6,0-12,.11-17.99-.03-6.05-.15-8.93-1.86-9.25-7.59-.6-10.75-.67-21.59.1-32.32.46-6.38,4.21-9.17,10.43-9.32,11.32-.28,22.65-.36,33.97-.04,7.58.21,12.28,5.5,11.17,12.26-.35,2.13-2.07,4.97-3.86,5.66-1.76.68-5.21-.26-6.51-1.73-3.61-4.1-7.87-5.16-12.97-4.9-4.49.23-9,0-13.49.18-4.73.18-7.43,2.77-7.62,7.53-.18,4.49-.29,9-.05,13.48.31,5.69,2.83,8,8.62,8.16,5.16.14,10.32-.01,15.49,0,4.07,0,6.71-1.79,8.76-5.44,1.09-1.94,4.53-4.6,5.57-4.11,2.49,1.17,5.27,3.72,5.99,6.26,1.69,5.95-2.63,11.44-8.88,11.77-6.48.34-12.99.08-19.48.08,0,.03,0,.07,0,.1Z"/>
  <path class="cls-1" d="m921.9,680.18c0,5.83.11,11.66-.04,17.48-.1,3.95-1.78,6.89-6.25,6.81-4.47-.08-5.8-3.08-6.06-7.03-.73-11.13-2.29-12.45-13.41-11.94-4.99.23-9.98.28-14.97.48-6.47.26-8.62,2.32-9.2,8.69-.16,1.82.21,4.03-.69,5.36-1.24,1.83-3.5,4.2-5.24,4.13-2.06-.08-4.36-2.23-5.9-4.04-.89-1.04-.6-3.19-.62-4.84-.13-9.65-.21-19.31-.26-28.97,0-1.66.05-3.35.35-4.97.63-3.35,2.65-5.39,6.16-5.39,3.57,0,5.5,2.14,5.97,5.52.32,2.3.24,4.65.47,6.97.44,4.32,2.87,6.58,7.25,6.62,7.64.07,15.28.14,22.92.18,4.22.02,6.49-2.19,6.9-6.3.25-2.48.12-5,.47-7.46.51-3.58,2.54-5.82,6.37-5.64,3.61.17,5.49,2.51,5.6,5.86.21,6.15.06,12.31.06,18.47.03,0,.06,0,.09,0Z"/>
  <path class="cls-1" d="m1483.44,704.95c-6.16,0-12.32.13-18.48-.04-6.12-.16-8.27-2.17-8.33-8.14-.11-10.82-.09-21.64.21-32.46.19-6.87,2.43-8.78,9.33-8.81,11.65-.05,23.31-.05,34.96.04,3.74.03,8.02.23,7.91,5.36-.1,4.67-3.95,5.92-7.87,5.78-6.65-.25-13.28-.98-19.92-1.36-2.8-.16-5.88-.6-8.34.36-1.82.71-3.82,3.43-3.91,5.34-.07,1.5,2.41,3.8,4.23,4.51,2.2.86,4.91.4,7.4.54,2.32.13,4.8-.15,6.9.61,1.58.57,3.81,2.6,3.71,3.82-.13,1.68-1.9,3.68-3.5,4.65-1.39.83-3.54.52-5.35.51-2.16-.01-4.32-.43-6.47-.35-3.4.13-6.55,1.15-6.66,5.22-.11,3.99,2.83,5.59,6.27,5.67,7.48.16,14.98-.01,22.46-.08,1.5-.01,2.99-.27,4.49-.22,2.97.1,6.06.64,6.28,4.27.23,3.82-2.96,4.55-5.86,4.63-6.49.18-12.98.06-19.48.06,0,.04,0,.08,0,.11Z"/>
  <path class="cls-1" d="m327.27,704.92c-6.83,0-13.66.12-20.48-.04-6.05-.14-8.26-2.09-8.41-8.13-.29-11.15-.24-22.31-.17-33.47.03-3.99,1.39-7.35,6.19-7.5,3.96-.12,6.32,2.64,6.38,7.87.08,7.49-.25,14.99-.19,22.48.07,8.03,2.25,10.13,10.11,10.16,4.99.02,9.99.02,14.99-.1,6.27-.15,8.71-2.63,8.74-8.96.03-6.83-.16-13.65-.14-20.48,0-1.98.22-4.01.69-5.94.8-3.3,2.97-5.21,6.48-5.02,3.56.19,5.48,2.42,5.72,5.8.26,3.65.13,7.32.11,10.98-.04,7.33.08,14.66-.23,21.98-.35,8.11-2.74,10.29-10.78,10.4-6.33.09-12.66.02-18.99.02v-.05Z"/>
  <path class="cls-1" d="m441.43,705.57c-2.43-1.51-5.33-2.6-7.19-4.63-2.96-3.23-6.29-4.68-10.54-4.64-6.15.06-12.31.02-18.46-.04-4.25-.04-7.78,1.21-10.4,4.79-2.04,2.79-4.91,4.52-8.17,2.42-3.61-2.33-2.03-5.6-.36-8.36,6.89-11.38,13.74-22.79,20.92-33.99,4.95-7.71,12.7-7.7,17.65.05,7.62,11.9,14.94,23.99,22.25,36.1,2.62,4.35.32,7.49-5.69,8.3Zm-25.92-20.24c2.85-.54,7.35,1.16,7.48-4.41.1-4.02-4.51-10.02-7.48-10.15-3.31-.16-7.62,5.45-7.46,9.86.18,4.85,3.79,4.63,7.46,4.71Z"/>
  <path class="cls-1" d="m240.68,655.48c7.32,0,14.65-.07,21.97.03,3.91.05,7.52.94,7.7,5.86.14,3.89-2.92,6.03-8.12,5.94-14.53-.23-14.78.02-14.81,14.57-.01,5.16.08,10.32-.14,15.48-.21,5.05-2.63,7.44-6.93,7.29-4.67-.17-6.36-3.13-6.43-7.28-.12-6.99-.02-13.98-.13-20.97-.11-7.35-2.23-9.36-9.69-9.45-2.49-.03-5.01.1-7.48-.13-3.33-.32-5.81-1.91-5.76-5.63.05-3.69,2.54-5.45,5.86-5.53,7.98-.19,15.97-.06,23.96-.06,0-.04,0-.08,0-.13Z"/>
  <path class="cls-1" d="m29.84,705.73c-2.53-1.82-5.46-2.92-6.77-5.02-7.68-12.27-15.07-24.72-22.28-37.27-.94-1.64-1.09-5.49-.18-6.07,1.79-1.14,4.81-1.39,6.89-.69,1.96.66,3.73,2.76,4.94,4.65,4.4,6.85,8.38,13.98,12.85,20.78,1.34,2.03,3.79,4.71,5.65,4.64,1.89-.07,4.17-2.86,5.4-4.97,3.76-6.46,6.72-13.41,10.78-19.67,1.82-2.8,5.33-4.71,8.43-6.35,1.07-.57,3.84.45,4.71,1.59.86,1.12.99,3.75.24,5-7.84,13.14-15.81,26.21-24.05,39.1-1.16,1.82-3.94,2.61-6.61,4.28Z"/>
  <path class="cls-1" d="m632.46,655.4c5.99,0,11.99-.01,17.98,0,1.83,0,3.67.01,5.49.19,3.45.33,6.37,1.57,6.29,5.63-.08,4.23-3.06,5.6-6.76,5.76-2.49.1-4.99-.1-7.49-.05-6.28.14-8.43,2.17-8.63,8.41-.19,6.16-.13,12.32-.21,18.48-.02,1.66-.04,3.34-.23,4.98-.4,3.42-2.24,5.57-5.81,5.66-3.76.09-6.17-1.94-6.34-5.63-.28-6.48-.21-12.98-.13-19.47.12-10.6-1.92-12.66-12.43-12.4-2.32.06-4.96.57-6.89-.34-2.05-.97-4.72-3.36-4.73-5.15,0-1.86,2.57-4.13,4.53-5.46,1.33-.9,3.54-.56,5.37-.6,3.33-.07,6.66-.01,9.99-.01,3.33,0,6.66,0,9.99,0v-.02Z"/>
  <path class="cls-1" d="m1171.49,704.97c-5.82,0-11.64.12-17.45-.03-6.38-.16-8.48-2.16-8.56-8.42-.14-10.8-.14-21.61,0-32.42.07-5.76,2.24-8.37,6.37-8.36,4.3.02,6.72,2.89,6.81,8.64.11,7.48-.18,14.96-.06,22.44.12,7.25,2.43,9.45,9.76,9.49,6.32.03,12.63-.2,18.95-.29,1.66-.02,3.58-.5,4.91.16,1.85.92,3.25,2.73,4.84,4.16-1.54,1.44-2.96,3.92-4.65,4.13-5.08.63-10.27.38-15.42.46-1.83.03-3.66,0-5.49,0v.03Z"/>
  <path class="cls-1" d="m500.99,704.94c-6,0-12,.13-17.99-.04-5.87-.17-8-2.12-8.1-7.83-.19-11.16-.19-22.32-.02-33.48.08-5.4,2.37-7.88,6.4-7.83,4,.05,6.43,2.7,6.52,7.83.13,7.16-.16,14.32-.15,21.48.01,9.36,2.08,11.34,11.59,11.27,5.66-.04,11.33-.12,16.99-.15,1.5,0,3.22-.39,4.44.21,2.01.99,3.68,2.65,5.5,4.02-1.74,1.44-3.27,3.58-5.26,4.16-2.63.76-5.61.33-8.44.35-3.83.03-7.66,0-11.49,0Z"/>
  <path class="cls-1" d="m86.82,679.93c0-5.66-.09-11.31.03-16.97.08-4.16,1.82-7.11,6.47-7.24,4.22-.12,6.93,2.37,7.01,7.32.19,11.64.12,23.29-.03,34.93-.06,4.36-2.54,6.77-7,6.68-4.33-.08-6.31-2.73-6.41-6.75-.15-5.98-.04-11.98-.04-17.96,0,0-.02,0-.03,0Z"/>
  <path class="cls-1" d="m1410.15,679.8c0-5.65-.11-11.3.04-16.94.1-3.84,1.53-7.05,6.03-7.03,4.42.02,6.09,3.15,6.12,7,.11,11.63.08,23.25-.06,34.88-.05,3.97-1.88,6.84-6.3,6.73-4.18-.11-5.73-3-5.82-6.7-.13-5.98-.04-11.96-.04-17.94,0,0,.01,0,.02,0Z"/>
</svg>