<?xml version="1.0" encoding="UTF-8"?>
<svg id="Layer_1" data-name="Layer 1" xmlns="http://www.w3.org/2000/svg" version="1.1" viewBox="0 0 1906.1 842.6">
  <defs>
    <style>
      .cls-1 {
        fill: #0d8ac9;
      }

      .cls-1, .cls-2 {
        stroke-width: 0px;
      }

      .cls-2 {
        fill: #fff;
      }
    </style>
  </defs>
  <path class="cls-2" d="M1583.6,842.6c-8.7-2.5-10-4.3-10.1-15.2-.2-10,0-20.1,0-30.1,0-9,2.5-12.8,11.3-13,17.7-.5,35.4-.1,53.1.4,6.2.2,9.5,5.3,8.5,11.6-.1.9-1.5,2-2.5,2.2-3.5.7-7.1,1-10.9,1.5-.1-1.7-.2-3.2-.3-5h-44.8v36.3h44.7v-12.9h-22.9v-10.2h36.3c0,9,.4,17.9-.2,26.8-.3,5.4-5.5,6.3-9.8,7.4h-52.4,0ZM1525.7,842.6c5.8-1.2,10.2-3.7,10.2-10.6,0-12.5.1-25,0-37.5,0-6.2-2.7-9.6-8.8-9.8-18.6-.5-37.2-.9-55.8-.4-8.8.2-11.2,4.1-11.3,13.1,0,10-.1,20.1,0,30.1.2,11.2,1.6,12.7,10.1,15.1h55.6ZM1521.6,831.5h-47.2v-36.3h47.2v36.3ZM1320.6,842.6c5.8-1.2,10.2-3.7,10.2-10.6,0-12.5.1-25,0-37.5,0-6.2-2.7-9.6-8.8-9.8-18.6-.5-37.2-.9-55.8-.4-8.8.2-11.2,4.1-11.3,13.1,0,10-.1,20.1,0,30.1.2,11.2,1.6,12.7,10.1,15.1h55.6ZM1269,797.8c0-.8,0-1.5.1-2.6h47.3v36.2h-47.5v-33.6h0ZM1895.9,842.6c9.7-2.6,10-6.3,10.2-15.2,0-1.8,0-3.7,0-5.5,0-12.5-2.8-15.3-15.4-15.4-11.3,0-22.7,0-34,0h-4.2v-11.5h40.7c.2,1.8.3,3.3.5,5,4-.8,7.7-1.5,11.4-2.2.7-8.9-1.6-12.7-9.9-13.4-10.4-.8-20.8-.6-31.2-.6s-10.7.2-16,.8c-4.6.5-7.2,2.9-7.6,7.6-.5,5.7-.4,11.4,0,17.1.2,4.3,3.2,6.7,7.3,7.4,2.8.5,5.7.8,8.5.8,10.4,0,20.9,0,31.3,0h5.7v13.8h-43.5v-7.4c-3.7.8-7.2,1.4-10.6,2.2-.7.2-1.7.8-1.9,1.5-1.9,6.1,2.3,12.9,8.7,14.2.8.2,1.5.5,2.2.7h47.8ZM178.7,842.6v-21.9c4.3,0,8.5,0,12.6,0,.7,0,1.5.4,2,.9,7.6,6.7,15.2,13.5,22.7,20.3.2.1.1.5.2.7h20.4c-.7-.7-1.3-1.6-2.1-2.2-7.4-5.8-14.8-11.6-22.2-17.3-.8-.6-1.7-.9-2.6-1.3,4.9-1.1,9-1.2,12.9-1.8,6-1,8.4-4,8.5-10.2,0-4.4,0-8.9,0-13.3,0-8.5-2.6-11.5-11-12.5-1.3-.2-2.6-.1-3.9-.1h-51.7v58.7h14.1ZM213.8,794.2c2.5,0,4.1,1.5,4.1,4.2.4,12.8.3,12.2-10.8,12.1-9.4,0-18.7,0-28.3,0v-16.4c11.8,0,23.4,0,34.9,0h0ZM1156.2,842.6v-40.1c17.3,13.9,33.7,27,50.1,40.1h10.2v-58.5h-12.8v38.5c-1.4-.8-2.3-1.3-3-1.9-14.3-11.1-28.7-22-42.7-33.5-4.5-3.7-9-3.7-14.2-3.1v58.4h12.5ZM1043.5,842.6v-24h45.4v24h14.1v-58.4h-14.3v22.2h-45.1v-22.2h-14.1v58.5h14.1ZM980.9,842.6c5.2-1.2,9.7-3.3,10.1-9.5.2-3,.2-6,0-9,0-.8-1.1-2.2-1.8-2.3-4-1-8-1.6-12.3-2.4v12h-38.7v-36.2h38.9v10.6c4.8-.8,9.4-1.5,14-2.2,0-3.5.2-6.5,0-9.5-.5-5.9-3-8.6-9-9.5-2.6-.4-5.2-.6-7.8-.7-10.4,0-20.9,0-31.3,0-3.6,0-7.3.3-10.9.8-4.6.7-6.8,2.9-7.6,7.6-.4,2.3-.7,4.6-.7,7,0,9.4-.2,18.8,0,28.2.2,11.3,1.6,12.7,10.1,15.2h47ZM890.1,842.6v-11.2h-49v-14h27.9v-10.3h-27.9v-13.2h48.2v-9.9h-62.6v58.5h63.4,0ZM1803.5,842.6v-11.2h-49v-14h27.9v-10.3h-27.9v-13.2h48.2v-9.9h-62.6v58.5h63.4ZM419,842.6c9.9-2.2,10.9-5.5,10.9-15.7,0-12.9,0-25.8,0-38.7v-4h-14.4v47.2h-41.2v-47.2h-13.8c0,.6-.2.8-.2,1.1,0,14.1,0,28.2,0,42.3s.9,11.8,10.2,15.1h48.5,0ZM473,842.6c2.1-3.7,4-7.5,6.3-11.1.5-.8,2.1-1.4,3.2-1.4,11.4,0,22.8,0,34.3,0,1,0,2.6.3,3,1.1,2.3,3.7,4.3,7.6,6.4,11.4h16.4c-10.2-16.8-20.7-33.4-30.3-50.5-3.7-6.5-7.7-9.5-15.2-8.4-2.5.4-4.1.7-5.5,3.1-10.3,17.6-20.8,35.1-31.2,52.6-.6,1-1,2.1-1.5,3.1h14.1,0ZM499.5,794.4c4.7,8.4,9.1,16.2,13.7,24.5h-27c4.5-8.3,8.7-16.1,13.3-24.5h0ZM45.6,842.6c.5-1.2,1-2.4,1.6-3.5,9.9-17,19.8-33.9,29.6-50.9.8-1.3,1.4-2.7,2.3-4.3-3.9,0-7.3.2-10.6,0-2.8-.2-4.4.7-5.7,3.3-6.4,12-13.1,23.9-19.8,35.9-.6,1-1.3,2-2.1,3.4-1-1.6-1.8-2.8-2.5-4-7-11.9-13.9-23.8-21-35.6-.7-1.1-1.9-2.6-2.9-2.7-4.7-.3-9.4-.1-14.7-.1,12.1,20,23.8,39.3,35.5,58.7h10.2ZM765.7,842.6c0-.6-.3-1.3-.3-1.9,0-14.5,0-28.9,0-43.4,0-.7.2-1.5.3-2.5h27.8v-10.6h-70.8v10.8h28.4c0,9.7,0,18.9,0,28.2,0,6.5.2,13,.3,19.5h14.1,0ZM299.2,842.6c-.1-.6-.3-1.3-.3-1.9,0-14.5,0-28.9,0-43.4,0-.7.2-1.5.4-2.5h27.8v-10.6h-70.8v10.8h28.4c0,9.7,0,18.9,0,28.2,0,6.5.2,13,.3,19.5h14.1ZM631.8,842.6v-11.2h-46.3v-47.3h-14v58.5h60.3ZM1431,842.6v-11.2h-46.3v-47.3h-14v58.5h60.3ZM1699.4,842.6v-58.4h-14.1v58.4h14.1ZM123.9,842.6v-58.4h-14.1v58.4h14.1Z"/>
  <path class="cls-1" d="M387.2,298h82.4v395.7c-1.2,0-2.3.2-3.4.2-18.6,0-37.3,0-56,0-1.9,0-4.1-.9-5.5-2.1-73.5-61.7-147-123.4-220.3-185.4-28.8-24.3-57.2-49-85.8-73.6-5.3-4.6-10.3-9.5-15.1-14,.4,5.6,1,12,1.4,18.4.8,13.5,2.1,27.1,2.1,40.6.2,70.8,0,141.7,0,212.5v3.4H4.7v-395.6c1.3,0,2.5-.2,3.6-.2,18.5,0,37,0,55.6,0,1.9,0,4.1.8,5.5,2,39.6,33,79,66.1,118.5,99.1,50.6,42.4,101.1,84.8,151.7,127.1,17.7,14.8,35.6,29.4,50.9,48,0-3,.1-5.2,0-7.4-1.1-21.1-3.1-42.2-3.2-63.2-.4-66.8-.1-133.6-.1-200.4v-5.1h0ZM953.2,418.2c18.2,20.2,39.4,37.2,60.2,54.7,86.8,73.1,173.5,146.1,260.4,219.1,1.2,1,3.2,1.8,4.8,1.8,19.2.1,38.3,0,57.5,0,.7,0,1.5,0,2.3-.2v-395.7h-82.4v4.7c0,67.2-.2,134.4.1,201.5,0,16.9,1.6,33.8,2.5,50.8.3,6.1.7,12.2,1,18.4-16.7-19.3-36.2-34.8-55.3-50.7-49.2-41.2-98.3-82.4-147.5-123.6-39.3-32.9-78.6-65.8-117.8-98.8-2.1-1.8-4.2-2.6-7-2.5-15.3.1-30.5,0-45.8,0h-12.7v395.8h82.4v-4.9c0-47.1,0-94.2,0-141.3-.1-43.1,1.4-86.3-3.9-129.6.8.2,1.1.2,1.2.4h0ZM1587,619.4v-98.7h182v-67.1h-182v-88.6h312.6v-66.9h-404.8v395.6h408.4v-74.3h-316.2ZM626.1,693.6h91.6v-395.5h-91.6v395.5Z"/>
  <path class="cls-2" d="M650.7,0c33.5-.1,62.8,4,91.2,13.6,11.9,4,23.7,8.8,34.9,14.5,12.4,6.3,24.5,13.3,35.8,21.3,27.1,19,49,43.1,66.5,71.2,16.3,26,28.2,53.9,35.2,83.9.5,2.4,1,4.9,1.2,7.3.5,10.3-6.3,18.4-16.2,19.7-9.8,1.3-18.8-4.9-20.9-14.8-8.1-37.8-24.7-71.4-49.3-101.1-19.8-23.9-43.9-42.4-72-55.7-33.7-15.9-69.3-22.8-106.4-22.3-16,.2-31.9,1.9-47.6,5.6-7.3,1.7-14,.2-19.1-5.8-4.9-5.9-5.9-12.7-3-19.8,2.4-6,7.3-9.4,13.4-10.9,19.7-4.9,39.8-6.5,56.4-6.7ZM660.1,72c-13.5,1.8-27.1,3.2-40.5,5.6-11.1,2-17.3,12.2-15,22.7,2.2,10.2,12.2,15.9,23.2,14,9.3-1.6,18.8-3.2,28.2-3.5,34.5-1,66.1,7.8,93.8,29,21.3,16.2,36.1,37.3,45.7,62.1,3,7.9,4.8,16.1,7.5,24.2,4.2,13.1,20.4,17.4,30.4,8.2,7.1-6.5,6.9-14.4,4.8-22.8-4.2-16.5-10.4-32.2-18.6-47.1-19.2-34.5-46.8-60-82.9-76-24.2-10.7-49.8-15.6-76.4-15.4,0-.4,0-.8-.2-1.1h0ZM663.4,147.6c-9.5,1.4-19.2,2.1-28.4,4.4-9.2,2.3-14,12.5-11.6,21.4,2.6,9.2,11.2,14.4,20.8,12.9,5.8-.9,11.6-1.8,17.4-1.7,16.7.2,31.8,5.1,44.4,16.4,11.2,10.1,18,22.7,21.4,37.4,2.2,9.6,11.6,15.3,21.2,13.3,9-1.9,15.4-11,13.7-20.3-1-5.3-2.5-10.6-4.4-15.7-14.7-40.2-51.4-66.2-94.3-67,0-.4,0-.7-.2-1h0Z"/>
</svg>