<?xml version="1.0" encoding="UTF-8"?>
<svg id="Layer_1" data-name="Layer 1" xmlns="http://www.w3.org/2000/svg" viewBox="0 0 1906.1 842.62">
  <defs>
    <style>
      .cls-1, .cls-2 {
        stroke-width: 0px;
      }

      .cls-2 {
        fill: #0d8ac9;
      }
    </style>
  </defs>
  <path class="cls-1" d="m1583.61,842.62c-8.67-2.49-9.96-4.31-10.14-15.17-.17-10.04-.07-20.08-.03-30.12.04-9.01,2.47-12.75,11.32-13,17.69-.49,35.42-.13,53.12.42,6.21.19,9.51,5.35,8.53,11.6-.14.88-1.52,2.05-2.48,2.24-3.53.68-7.13,1-10.9,1.48-.11-1.68-.22-3.21-.34-4.96h-44.82v36.32h44.72v-12.88h-22.94v-10.18h36.29c0,9.01.41,17.94-.15,26.82-.34,5.38-5.47,6.26-9.75,7.42h-52.44Zm-57.92,0c5.77-1.24,10.22-3.74,10.21-10.58-.01-12.51.11-25.01-.06-37.52-.08-6.21-2.7-9.64-8.81-9.81-18.6-.52-37.22-.87-55.81-.36-8.75.24-11.21,4.06-11.27,13.07-.06,10.03-.14,20.06.02,30.09.18,11.18,1.6,12.68,10.14,15.1h55.57Zm-4.11-11.14h-47.23v-36.26h47.23v36.26Zm-200.95,11.14c5.77-1.24,10.22-3.74,10.21-10.58-.01-12.51.11-25.01-.06-37.52-.08-6.21-2.7-9.64-8.81-9.81-18.6-.52-37.22-.87-55.81-.36-8.75.24-11.21,4.06-11.27,13.07-.06,10.03-.14,20.06.02,30.09.18,11.18,1.6,12.68,10.14,15.1h55.57Zm-51.59-44.86c0-.77.08-1.54.13-2.59h47.35v36.21h-47.48c0-11.45,0-22.53,0-33.61Zm626.85,44.86c9.65-2.58,9.98-6.34,10.18-15.17.04-1.82,0-3.65,0-5.47,0-12.54-2.79-15.33-15.45-15.36-11.34-.02-22.68,0-34.02,0h-4.2v-11.49h40.72c.18,1.75.34,3.26.52,4.99,3.98-.75,7.74-1.46,11.4-2.15.73-8.94-1.62-12.74-9.93-13.41-10.36-.83-20.82-.59-31.23-.59-5.32,0-10.68.21-15.96.79-4.59.51-7.18,2.93-7.57,7.57-.48,5.65-.36,11.39-.04,17.06.25,4.32,3.21,6.7,7.35,7.37,2.81.46,5.69.76,8.53.78,10.43.09,20.86.04,31.28.04,1.9,0,3.8,0,5.66,0v13.85h-43.46v-7.39c-3.72.76-7.16,1.39-10.56,2.2-.72.17-1.67.85-1.87,1.5-1.89,6.14,2.33,12.92,8.68,14.18.75.15,1.46.47,2.2.71h47.74Zm-1717.2,0v-21.9c4.34,0,8.46-.04,12.58.04.69.01,1.51.42,2.04.89,7.61,6.73,15.18,13.49,22.74,20.27.16.14.14.46.21.7h20.35c-.69-.74-1.29-1.58-2.07-2.19-7.37-5.79-14.76-11.56-22.18-17.3-.76-.59-1.73-.9-2.6-1.34,4.94-1.1,8.98-1.15,12.93-1.79,6.04-.97,8.4-4,8.46-10.19.05-4.43.02-8.86,0-13.29-.01-8.53-2.57-11.45-11-12.49-1.29-.16-2.6-.12-3.9-.12-15.77,0-31.53,0-47.3,0h-4.36v58.7h14.09Zm35.09-48.44c2.51.02,4.05,1.49,4.14,4.22.45,12.85.3,12.23-10.78,12.14-9.36-.07-18.71-.01-28.29-.01v-16.4c11.78,0,23.35-.06,34.92.04Zm942.47,48.44v-40.07c17.32,13.86,33.71,26.96,50.09,40.07h10.17v-58.45h-12.81v38.49c-1.38-.85-2.27-1.29-3.04-1.89-14.28-11.1-28.72-22.01-42.73-33.45-4.51-3.69-8.98-3.67-14.21-3.1v58.4h12.52Zm-112.71,0v-24h45.4v24h14.09v-58.41h-14.3v22.21h-45.14v-22.24h-14.14v58.45h14.09Zm-62.61,0c5.19-1.23,9.66-3.31,10.1-9.51.21-2.99.24-6,.05-8.99-.06-.85-1.06-2.16-1.85-2.35-3.95-.95-7.97-1.6-12.35-2.43v12h-38.72v-36.19h38.93v10.56c4.84-.76,9.4-1.47,14.01-2.18,0-3.48.2-6.49-.04-9.46-.49-5.94-3.01-8.56-8.96-9.47-2.56-.39-5.17-.64-7.76-.66-10.43-.07-20.86-.09-31.29,0-3.63.03-7.29.26-10.88.77-4.61.66-6.79,2.93-7.63,7.59-.42,2.29-.68,4.64-.7,6.97-.08,9.39-.19,18.78,0,28.16.24,11.27,1.62,12.67,10.13,15.18h46.96Zm-90.79,0v-11.17h-48.99v-13.95h27.88v-10.26h-27.93v-13.16h48.21v-9.93h-62.57v58.46h63.4Zm913.39,0v-11.17h-48.99v-13.95h27.88v-10.26h-27.93v-13.16h48.21v-9.93h-62.57v58.46h63.4Zm-1384.56,0c9.91-2.17,10.89-5.48,10.94-15.71.06-12.91.02-25.82.02-38.74,0-1.37,0-2.74,0-3.96h-14.42v47.23h-41.24v-47.22h-13.82c-.09.56-.17.82-.17,1.07-.01,14.09-.03,28.17-.03,42.26,0,10.44.94,11.82,10.2,15.07h48.53Zm54,0c2.08-3.71,4.04-7.5,6.31-11.08.52-.83,2.11-1.37,3.22-1.38,11.42-.1,22.84-.09,34.26-.02,1.04,0,2.58.34,3.02,1.06,2.29,3.71,4.31,7.6,6.42,11.42h16.44c-10.17-16.78-20.7-33.36-30.32-50.45-3.68-6.54-7.73-9.55-15.17-8.37-2.46.39-4.14.65-5.55,3.07-10.31,17.6-20.82,35.09-31.25,52.63-.58.98-.98,2.08-1.46,3.12h14.09Zm26.57-48.18c4.72,8.43,9.1,16.25,13.72,24.49h-27c4.5-8.3,8.73-16.09,13.28-24.49Zm-453.91,48.18c.54-1.16.99-2.38,1.63-3.48,9.87-16.96,19.77-33.91,29.65-50.87.76-1.3,1.42-2.65,2.32-4.35-3.89,0-7.28.2-10.63-.06-2.83-.22-4.36.71-5.74,3.28-6.44,12.03-13.13,23.92-19.75,35.86-.58,1.05-1.28,2.05-2.11,3.36-1.01-1.62-1.77-2.81-2.49-4.03-6.99-11.88-13.94-23.77-20.98-35.62-.66-1.11-1.86-2.6-2.88-2.66-4.7-.28-9.42-.13-14.67-.13,12.09,20.01,23.78,39.35,35.47,58.69h10.17Zm720.06,0c-.1-.64-.27-1.28-.27-1.92-.02-14.47-.02-28.94,0-43.4,0-.73.2-1.46.35-2.5h27.84v-10.58h-70.76v10.76h28.4c0,9.68-.04,18.91.01,28.15.04,6.5.22,13,.34,19.5h14.09Zm-466.48,0c-.1-.64-.27-1.28-.27-1.92-.02-14.47-.02-28.94,0-43.4,0-.73.2-1.46.35-2.5h27.84v-10.58h-70.76v10.76h28.4c0,9.68-.04,18.91.01,28.15.04,6.5.22,13,.34,19.5h14.09Zm332.64,0v-11.19h-46.28v-47.26h-13.99v58.45h60.27Zm799.11,0v-11.19h-46.28v-47.26h-13.99v58.45h60.27Zm268.46,0v-58.42h-14.09v58.42h14.09Zm-1575.53,0v-58.42h-14.09v58.42h14.09Z"/>
  <path class="cls-2" d="m387.19,298.05h82.4v395.67c-1.16.07-2.29.18-3.42.19-18.65.01-37.31.07-55.96-.08-1.85-.01-4.07-.86-5.49-2.06-73.48-61.72-146.97-123.44-220.29-185.35-28.79-24.31-57.24-49.02-85.77-73.62-5.3-4.57-10.3-9.49-15.12-13.96.43,5.58,1.03,11.97,1.41,18.37.79,13.53,2.05,27.06,2.09,40.6.21,70.83.1,141.66.1,212.48,0,1.03,0,2.06,0,3.36H4.72v-395.6c1.35-.06,2.49-.16,3.64-.16,18.52,0,37.04-.06,55.57.08,1.86.01,4.1.81,5.52,2,39.55,32.98,79.03,66.06,118.51,99.13,50.57,42.37,101.12,84.77,151.72,127.1,17.71,14.81,35.58,29.44,50.88,48.02,0-2.97.1-5.2-.02-7.43-1.1-21.08-3.07-42.16-3.2-63.25-.42-66.78-.15-133.57-.15-200.35v-5.14Zm566.02,120.18c18.22,20.24,39.41,37.23,60.15,54.7,86.76,73.07,173.55,146.11,260.39,219.1,1.25,1.05,3.19,1.8,4.82,1.81,19.17.12,38.35.08,57.52.07.74,0,1.49-.1,2.29-.16v-395.71h-82.41v4.74c0,67.18-.17,134.35.12,201.53.07,16.92,1.61,33.84,2.49,50.76.32,6.12.68,12.24,1.02,18.36-16.67-19.27-36.23-34.75-55.31-50.74-49.16-41.21-98.35-82.38-147.53-123.58-39.28-32.9-78.57-65.8-117.81-98.76-2.12-1.78-4.21-2.56-7.01-2.54-15.26.13-30.52.06-45.78.06h-12.67v395.77h82.42v-4.91c0-47.09.09-94.18-.03-141.26-.11-43.13,1.39-86.32-3.91-129.65.79.24,1.11.24,1.25.4Zm633.79,201.2v-98.71h181.97v-67.14h-182.01v-88.6h312.56v-66.89h-404.76v395.63h408.44v-74.3h-316.2Zm-960.88,74.16h91.56v-395.54h-91.56v395.54Z"/>
  <path class="cls-1" d="m650.7,0c33.5-.1,62.81,4.01,91.16,13.58,11.91,4.02,23.68,8.82,34.87,14.51,12.36,6.29,24.47,13.31,35.82,21.27,27.09,18.99,48.95,43.12,66.47,71.15,16.28,26.04,28.25,53.92,35.17,83.89.55,2.4,1.05,4.85,1.16,7.3.47,10.26-6.3,18.45-16.15,19.74-9.79,1.28-18.75-4.9-20.87-14.79-8.07-37.81-24.73-71.43-49.35-101.1-19.83-23.9-43.93-42.4-72.02-55.69-33.68-15.94-69.28-22.84-106.39-22.29-16.04.24-31.93,1.94-47.6,5.64-7.31,1.73-14.04.23-19.07-5.85-4.91-5.94-5.86-12.66-3.01-19.78,2.42-6.04,7.26-9.37,13.38-10.87C613.98,1.86,634.06.18,650.7,0Zm9.39,72c-13.51,1.82-27.1,3.22-40.52,5.61-11.09,1.98-17.32,12.15-15.01,22.73,2.22,10.17,12.22,15.9,23.17,14,9.34-1.63,18.79-3.2,28.23-3.48,34.51-1.04,66.1,7.85,93.84,29.04,21.28,16.25,36.12,37.27,45.67,62.06,3.02,7.85,4.85,16.15,7.45,24.18,4.22,13.06,20.39,17.37,30.39,8.23,7.06-6.46,6.9-14.44,4.79-22.75-4.19-16.48-10.36-32.18-18.63-47.05-19.19-34.53-46.78-60.04-82.87-76-24.23-10.72-49.82-15.64-76.36-15.43-.05-.38-.1-.76-.15-1.13Zm3.28,75.56c-9.49,1.39-19.16,2.09-28.43,4.38-9.15,2.27-14.05,12.49-11.57,21.41,2.58,9.25,11.24,14.45,20.77,12.9,5.76-.94,11.63-1.8,17.44-1.74,16.67.17,31.79,5.08,44.36,16.44,11.17,10.1,17.97,22.73,21.37,37.36,2.23,9.6,11.63,15.31,21.21,13.28,9.03-1.92,15.37-10.98,13.66-20.27-.98-5.34-2.53-10.64-4.39-15.74-14.71-40.19-51.44-66.22-94.27-66.98-.05-.35-.1-.69-.15-1.04Z"/>
</svg>